<svg xmlns="http://www.w3.org/2000/svg" viewBox="0 0 230.4 230.4" width="230.4" height="230.4">
  <defs>
    <linearGradient id="gw" x1="0" y1="0" x2="0" y2="230.4" gradientUnits="userSpaceOnUse">
      <stop offset="0%" stop-color="#ffffff"/>
      <stop offset="45%" stop-color="#86efac"/>
      <stop offset="100%" stop-color="#4ade80"/>
    </linearGradient>
  </defs>
  <g transform="translate(0,230.4) scale(0.024,-0.024)" fill="url(#gw)" stroke="none">
    <path d="M4304 6541 c-199 -68 -407 -226 -481 -366 -17 -33 -38 -87 -46 -120 -19 -75 -29 -208 -19 -258 l7 -38 55 78 c49 69 288 328 296 320 2 -1 -31 -68 -72 -147 -89 -172 -154 -314 -154 -335 0 -18 8 -18 91 -1 223 48 387 224 418 448 14 99 11 440 -4 444 -5 2 -46 -9 -91 -25z"/>
    <path d="M3122 6433 c6 -132 29 -200 95 -274 86 -94 177 -135 329 -145 l94 -7 0 79 c0 235 -120 395 -327 439 -37 8 -97 15 -132 15 l-63 0 4 -107z"/>
    <path d="M5943 6477 c-28 -34 -152 -177 -275 -318 -631 -722 -1018 -1163 -1253 -1429 -143 -162 -375 -425 -515 -585 -140 -159 -385 -438 -545 -620 -340 -387 -405 -463 -405 -476 0 -5 137 -9 349 -9 l349 0 187 213 c103 116 229 259 280 317 51 58 202 229 336 380 135 151 591 671 1014 1155 423 484 867 993 988 1130 120 138 228 262 239 278 l19 27 -358 -1 -358 0 -52 -62z"/>
    <path d="M3760 4858 l1 -593 47 52 c26 28 161 177 300 331 l252 281 0 260 0 261 -300 0 -300 0 0 -592z"/>
    <path d="M5062 4333 c-101 -113 -181 -210 -179 -217 3 -7 108 -136 233 -287 357 -430 630 -757 644 -773 6 -6 589 -11 723 -6 4 0 -22 35 -58 78 -122 143 -499 594 -824 987 -178 215 -331 397 -340 406 -15 15 -31 -1 -199 -188z"/>
    <path d="M4259 3418 c-63 -73 -160 -184 -216 -247 -57 -64 -103 -119 -103 -123 0 -5 96 -8 213 -8 l214 0 6 252 c3 139 4 254 3 255 -1 1 -54 -57 -117 -129z"/>
    <path d="M3228 1539 c-255 -152 -316 -254 -291 -489 l6 -62 42 85 c65 130 135 224 199 269 17 12 26 16 20 8 -15 -20 -147 -351 -141 -356 7 -7 79 27 125 58 55 38 118 134 132 201 14 72 18 337 4 337 -6 0 -49 -23 -96 -51z"/>
    <path d="M3502 1543 c3 -37 4 -38 46 -41 l42 -3 0 40 0 41 -46 0 -45 0 3 -37z"/>
    <path d="M3690 1310 l0 -270 40 0 40 0 0 270 0 270 -40 0 -40 0 0 -270z"/>
    <path d="M5640 1503 l0 -79 -40 4 c-161 16 -253 -84 -221 -240 18 -87 54 -124 136 -139 45 -9 183 7 203 23 9 8 12 68 10 257 l-3 246 -42 3 -43 3 0 -78z m-13 -151 c7 -4 12 -46 14 -110 3 -119 2 -122 -78 -122 -45 0 -54 4 -77 31 -21 25 -26 41 -26 88 0 61 17 96 54 111 26 11 97 12 113 2z"/>
    <path d="M4547 1433 c-4 -3 -7 -93 -7 -200 l0 -193 40 0 40 0 0 140 0 140 33 20 c17 11 42 20 55 20 21 0 23 4 20 38 -3 33 -6 37 -28 34 -14 -2 -39 -12 -57 -22 -34 -20 -43 -17 -43 12 0 12 -7 18 -23 18 -13 0 -27 -3 -30 -7z"/>
    <path d="M6534 1432 l-40 -3 -49 -134 c-44 -121 -65 -159 -65 -122 0 6 -22 66 -49 132 l-49 120 -42 3 c-40 3 -41 2 -35 -20 4 -13 14 -35 22 -50 7 -16 26 -63 42 -105 16 -43 42 -108 59 -144 28 -62 31 -65 61 -63 18 1 34 4 35 6 9 9 156 372 154 377 -2 3 -21 5 -44 3z"/>
    <path d="M3505 1237 l0 -192 43 -3 42 -3 0 195 0 196 -42 0 -43 0 0 -193z"/>
    <path d="M3880 1384 c-35 -25 -66 -47 -68 -49 -2 -2 14 1 35 6 21 5 53 9 71 9 27 0 32 -4 32 -24 0 -13 -7 -29 -15 -36 -8 -7 -15 -17 -15 -23 0 -17 68 53 101 104 16 25 29 49 29 52 0 4 -24 7 -52 6 -46 -1 -62 -7 -118 -45z"/>
    <path d="M4205 1416 c-39 -17 -84 -63 -93 -95 -4 -14 -7 -53 -7 -86 1 -71 25 -126 67 -156 40 -29 140 -45 209 -33 52 9 54 10 57 43 l3 33 -75 -7 c-94 -8 -157 14 -174 64 l-11 31 135 0 134 0 0 63 c0 75 -24 121 -75 143 -43 17 -130 18 -170 0z m140 -81 c46 -46 35 -55 -65 -55 -58 0 -90 4 -90 11 0 6 13 24 29 40 38 38 91 40 126 4z"/>
    <path d="M4788 1333 c-4 -157 0 -202 20 -236 33 -58 122 -69 206 -26 40 21 55 15 56 -18 0 -8 13 -13 30 -13 l30 0 0 195 0 195 -40 0 -40 0 0 -132 0 -133 -33 -22 c-42 -29 -107 -31 -130 -5 -14 15 -17 42 -17 155 l0 137 -40 0 -40 0 -2 -97z"/>
    <path d="M5900 1412 c-70 -35 -104 -128 -81 -225 24 -105 80 -140 224 -139 48 1 92 4 97 7 6 3 10 19 10 35 l0 30 -73 -6 c-107 -9 -163 13 -181 74 l-7 22 135 0 136 0 0 52 c0 69 -30 131 -74 152 -46 22 -142 21 -186 -2z m159 -78 c42 -53 39 -54 -136 -58 -22 -1 -27 3 -25 19 10 63 121 90 161 39z"/>
    <path d="M3794 1245 c-8 -20 4 -35 26 -35 12 0 42 -30 81 -81 33 -44 67 -83 74 -85 7 -3 29 -4 49 -2 l35 3 -74 100 c-41 55 -82 103 -92 107 -33 13 -93 9 -99 -7z"/>
    <path d="M5224 1095 c-10 -40 1 -55 41 -55 34 0 35 1 35 40 0 39 -1 40 -35 40 -29 0 -36 -4 -41 -25z"/>
  </g>
</svg>
