<svg xmlns="http://www.w3.org/2000/svg" viewBox="69 68 104 94">
  <g transform="translate(0,230.4) scale(0.024,-0.024)" fill="#016554" stroke="none">
    <path d="M4304 6541 c-199 -68 -407 -226 -481 -366 -17 -33 -38 -87 -46 -120 -19 -75 -29 -208 -19 -258 l7 -38 55 78 c49 69 288 328 296 320 2 -1 -31 -68 -72 -147 -89 -172 -154 -314 -154 -335 0 -18 8 -18 91 -1 223 48 387 224 418 448 14 99 11 440 -4 444 -5 2 -46 -9 -91 -25z"/>
    <path d="M3122 6433 c6 -132 29 -200 95 -274 86 -94 177 -135 329 -145 l94 -7 0 79 c0 235 -120 395 -327 439 -37 8 -97 15 -132 15 l-63 0 4 -107z"/>
    <path d="M5943 6477 c-28 -34 -152 -177 -275 -318 -631 -722 -1018 -1163 -1253 -1429 -143 -162 -375 -425 -515 -585 -140 -159 -385 -438 -545 -620 -340 -387 -405 -463 -405 -476 0 -5 137 -9 349 -9 l349 0 187 213 c103 116 229 259 280 317 51 58 202 229 336 380 135 151 591 671 1014 1155 423 484 867 993 988 1130 120 138 228 262 239 278 l19 27 -358 -1 -358 0 -52 -62z"/>
    <path d="M3760 4858 l1 -593 47 52 c26 28 161 177 300 331 l252 281 0 260 0 261 -300 0 -300 0 0 -592z"/>
    <path d="M5062 4333 c-101 -113 -181 -210 -179 -217 3 -7 108 -136 233 -287 357 -430 630 -757 644 -773 6 -6 589 -11 723 -6 4 0 -22 35 -58 78 -122 143 -499 594 -824 987 -178 215 -331 397 -340 406 -15 15 -31 -1 -199 -188z"/>
    <path d="M4259 3418 c-63 -73 -160 -184 -216 -247 -57 -64 -103 -119 -103 -123 0 -5 96 -8 213 -8 l214 0 6 252 c3 139 4 254 3 255 -1 1 -54 -57 -117 -129z"/>
  </g>
</svg>
